<?xml version="1.0" encoding="UTF-8" standalone="no"?>
<svg
   version="1.1"
   width="380.67001"
   height="104.68"
   id="svg2"
   sodipodi:docname="logo-idlab.svg"
   inkscape:version="1.3.2 (091e20ef0f, 2023-11-25)"
   xmlns:inkscape="http://www.inkscape.org/namespaces/inkscape"
   xmlns:sodipodi="http://sodipodi.sourceforge.net/DTD/sodipodi-0.dtd"
   xmlns="http://www.w3.org/2000/svg"
   xmlns:svg="http://www.w3.org/2000/svg">
  <defs
     id="defs2" />
  <sodipodi:namedview
     id="namedview2"
     pagecolor="#ffffff"
     bordercolor="#000000"
     borderopacity="0.25"
     inkscape:showpageshadow="2"
     inkscape:pageopacity="0.0"
     inkscape:pagecheckerboard="0"
     inkscape:deskcolor="#d1d1d1"
     inkscape:zoom="1.4833333"
     inkscape:cx="190.44944"
     inkscape:cy="72.47191"
     inkscape:window-width="1920"
     inkscape:window-height="1011"
     inkscape:window-x="0"
     inkscape:window-y="0"
     inkscape:window-maximized="1"
     inkscape:current-layer="svg2" />
  <polygon
     fill="#FFFFFF"
     points="19.66,23.46 19.66,40.01 36.22,23.46 "
     id="polygon1"
     transform="translate(-19.66,-17.56)" />
  <polygon
     fill="#FFFFFF"
     points="62.04,23.46 62.04,40.01 78.6,23.46 "
     id="polygon2"
     transform="translate(-19.66,-17.56)" />
  <path
     fill="#FFFFFF"
     d="m 207.39,93.45 v 10.66 h -54.3 V 5.9 h 11.23 v 87.56 h 43.07 z M 16.56,104.12 V 72.45 8.72 L 0,25.28 v 3.27 43.89 31.67 h 16.56 z m 326.66,-9.54 c 3.88,-0.02 7.41,-0.7 10.64,-2.06 3.2,-1.33 5.99,-3.23 8.35,-5.68 2.34,-2.48 4.16,-5.38 5.45,-8.72 1.29,-3.34 1.92,-7.02 1.94,-11.04 -0.02,-3.98 -0.65,-7.65 -1.94,-10.99 -1.29,-3.35 -3.11,-6.24 -5.45,-8.7 -2.36,-2.48 -5.14,-4.4 -8.35,-5.75 -3.23,-1.36 -6.76,-2.03 -10.64,-2.06 -3.9,0.02 -7.48,0.7 -10.71,2.04 -3.23,1.36 -6.03,3.25 -8.4,5.71 -2.36,2.46 -4.19,5.38 -5.45,8.72 -1.29,3.34 -1.94,7.01 -1.96,11.04 0.02,4.05 0.68,7.76 1.96,11.11 1.26,3.34 3.09,6.24 5.45,8.7 2.36,2.43 5.17,4.33 8.4,5.66 3.22,1.31 6.8,1.99 10.71,2.02 m 16.32,-62.07 c 4.35,1.82 8.09,4.4 11.22,7.72 3.16,3.34 5.59,7.32 7.32,11.9 1.71,4.58 2.57,9.66 2.59,15.22 -0.02,5.5 -0.86,10.5 -2.57,15.04 -1.68,4.54 -4.07,8.47 -7.2,11.76 -3.11,3.3 -6.8,5.85 -11.11,7.65 -4.3,1.8 -9.1,2.71 -14.34,2.74 -6.62,-0.05 -12.39,-1.47 -17.28,-4.3 -4.89,-2.83 -8.72,-6.81 -11.48,-11.97 v 15.86 H 305.75 V 0 h 10.94 v 46.16 c 2.78,-5.24 6.6,-9.26 11.46,-12.11 4.86,-2.83 10.52,-4.28 17.02,-4.3 5.27,0.02 10.04,0.94 14.37,2.76 z M 244.99,95.14 c 4.19,-0.02 7.97,-0.68 11.37,-2.01 3.39,-1.33 6.24,-3.23 8.56,-5.71 2.32,-2.46 3.95,-5.4 4.91,-8.84 v -8.84 h -23.01 c -6.17,-0.02 -10.88,0.96 -14.03,2.9 -3.18,1.96 -4.77,4.96 -4.77,9.03 0.02,2.73 0.73,5.1 2.11,7.11 1.36,2.01 3.32,3.58 5.84,4.68 2.55,1.09 5.54,1.65 9.02,1.68 m 24.98,-2.39 c -2.97,4 -6.73,6.99 -11.32,8.96 -4.58,1.99 -9.85,2.97 -15.76,2.97 -3.83,-0.02 -7.3,-0.61 -10.38,-1.73 -3.09,-1.15 -5.71,-2.74 -7.9,-4.77 -2.2,-2.06 -3.88,-4.45 -5.05,-7.18 -1.17,-2.74 -1.75,-5.71 -1.78,-8.91 0.02,-4.33 1.12,-8.07 3.3,-11.2 2.17,-3.13 5.33,-5.57 9.45,-7.3 4.12,-1.73 9.07,-2.62 14.9,-2.69 h 24.27 v -4.35 c 0,-3.62 -0.75,-6.71 -2.22,-9.29 -1.5,-2.57 -3.7,-4.54 -6.64,-5.89 -2.92,-1.38 -6.57,-2.08 -10.92,-2.08 -4.04,0.02 -8.02,0.75 -11.88,2.2 -3.86,1.47 -7.72,3.53 -11.55,6.22 l -4.63,-8 c 3.13,-2.11 6.22,-3.9 9.26,-5.4 3.02,-1.47 6.22,-2.6 9.59,-3.39 3.37,-0.77 7.16,-1.17 11.32,-1.17 6.1,0.02 11.25,1.05 15.46,3.09 4.21,2.06 7.44,4.98 9.63,8.77 2.2,3.81 3.34,8.37 3.39,13.68 l 0.14,48.83 H 269.99 V 92.75 Z M 42.38,70.08 v 34.04 h 39.85 c 7.48,-0.05 14.31,-1.26 20.56,-3.69 6.22,-2.41 11.62,-5.82 16.21,-10.24 4.58,-4.4 8.12,-9.56 10.64,-15.55 2.5,-5.96 3.79,-12.51 3.81,-19.62 -0.02,-7.16 -1.29,-13.73 -3.79,-19.69 -2.5,-5.96 -6.01,-11.16 -10.55,-15.55 -4.56,-4.4 -9.92,-7.79 -16.09,-10.2 C 96.85,7.17 90.06,5.93 82.65,5.91 H 61.76 L 42.38,25.28 v 28.55 6.81 1.81 5.81 z M 58.94,60.64 V 53.83 20.77 h 23.43 c 4.86,0.02 9.38,0.87 13.54,2.55 4.16,1.68 7.79,4.05 10.92,7.11 3.11,3.06 5.54,6.69 7.27,10.88 1.73,4.19 2.62,8.79 2.64,13.84 -0.02,5 -0.89,9.59 -2.57,13.73 -1.68,4.16 -4.07,7.76 -7.11,10.8 -3.04,3.02 -6.59,5.38 -10.69,7.04 -4.07,1.66 -8.51,2.5 -13.31,2.52 H 58.94 V 70.08 68.27 62.46 Z"
     id="path2" />
</svg>
