<?xml version="1.0" encoding="UTF-8" standalone="no"?>
<!-- Generator: Adobe Illustrator 20.0.0, SVG Export Plug-In . SVG Version: 6.00 Build 0)  -->

<svg
   version="1.1"
   id="Layer_1"
   x="0px"
   y="0px"
   viewBox="0 0 368.89998 110.3"
   xml:space="preserve"
   sodipodi:docname="LOGO-IMEC_black.svg"
   width="368.89999"
   height="110.3"
   inkscape:version="1.3.2 (091e20ef0f, 2023-11-25)"
   xmlns:inkscape="http://www.inkscape.org/namespaces/inkscape"
   xmlns:sodipodi="http://sodipodi.sourceforge.net/DTD/sodipodi-0.dtd"
   xmlns="http://www.w3.org/2000/svg"
   xmlns:svg="http://www.w3.org/2000/svg"><defs
   id="defs8" /><sodipodi:namedview
   id="namedview8"
   pagecolor="#ffffff"
   bordercolor="#000000"
   borderopacity="0.25"
   inkscape:showpageshadow="2"
   inkscape:pageopacity="0.0"
   inkscape:pagecheckerboard="0"
   inkscape:deskcolor="#d1d1d1"
   inkscape:zoom="1.9456693"
   inkscape:cx="184.25536"
   inkscape:cy="55.250909"
   inkscape:window-width="1920"
   inkscape:window-height="1011"
   inkscape:window-x="0"
   inkscape:window-y="0"
   inkscape:window-maximized="1"
   inkscape:current-layer="Layer_1" />
<style
   type="text/css"
   id="style1">
	.st0{fill:#FFFFFF;}
	.st1{fill:#FFFFFF;}
</style>
<g
   id="g8"
   transform="translate(-99.1,-86.6)">
	<path
   class="st0"
   d="m 116,86.6 h -13.8 c -1.8,0 -3.1,1.3 -3.1,3.1 v 13.8 c 0,1.8 1.3,3.1 3.1,3.1 H 116 c 1.8,0 3.1,-1.3 3.1,-3.1 V 89.7 c 0,-1.8 -1.2,-3.1 -3.1,-3.1 z"
   id="path1" />
	<g
   id="g7">
		<path
   class="st1"
   d="m 364.5,116.8 c -23.8,0 -34.8,12.7 -34.8,40.2 0,28.3 11.8,39.8 38.9,39.8 7.8,0 14.8,-1 21.4,-2.4 1.3,-0.3 2.1,-1.4 2.1,-2.9 V 181 c 0,-1.9 -1.1,-2.5 -2.9,-2.2 -7.3,1.3 -12.2,2.1 -19.4,2.1 -14,0 -20.3,-3.5 -21.3,-17.3 h 45.9 c 2.2,0 3.2,-1 3.2,-3.2 v -0.3 c 0.1,-30.6 -9.6,-43.3 -33.1,-43.3 z m -15.8,34 c 0.6,-13.7 5.6,-18.3 16,-18.3 10,0 14.4,4.6 15.2,18.3 z"
   id="path2" />
		<path
   class="st1"
   d="m 191.1,180.3 c -1.2,0.2 -3.3,0.5 -5.8,0.5 -6.2,0 -8.5,-2 -8.5,-12.8 v -48.5 c 0,-1.6 -1,-2.6 -2.6,-2.6 h -13.8 c -1.6,0 -2.6,1 -2.6,2.6 v 50.9 c 0,20 7.1,26.5 23.5,26.5 4.6,0 8.5,-0.5 10.2,-0.8 2,-0.3 2.5,-1.6 2.5,-3 v -10.7 c -0.1,-1.8 -1.1,-2.5 -2.9,-2.1 z"
   id="path3" />
		<path
   class="st1"
   d="m 291,116.8 c -4.6,0 -8.5,0.5 -10.2,0.8 -2,0.3 -2.5,1.6 -2.5,3 v 10.7 c 0,1.8 1,2.5 2.8,2.1 1.2,-0.2 3.3,-0.5 5.8,-0.5 6.2,0 8.5,2 8.5,12.8 v 48.5 c 0,1.6 1,2.6 2.6,2.6 h 13.8 c 1.6,0 2.6,-1 2.6,-2.6 v -50.9 c 0.1,-20.1 -7,-26.5 -23.4,-26.5 z"
   id="path4" />
		<path
   class="st1"
   d="m 247.7,116.8 c -4.6,0 -8.5,0.5 -10.2,0.8 -2,0.3 -2.5,1.6 -2.5,3 v 10.7 c 0,1.8 1,2.5 2.8,2.1 1.2,-0.2 3.3,-0.5 5.8,-0.5 6.2,0 8.5,2 8.5,12.8 v 48.5 c 0,1.6 1,2.6 2.6,2.6 h 13.8 c 1.6,0 2.6,-1 2.6,-2.6 v -50.9 c 0.1,-20.1 -7,-26.5 -23.4,-26.5 z"
   id="path5" />
		<path
   class="st1"
   d="m 204.8,116.8 c -4.6,0 -8.5,0.5 -10.2,0.8 -2,0.3 -2.5,1.6 -2.5,3 v 10.7 c 0,1.8 1,2.5 2.8,2.1 1.2,-0.2 3.3,-0.5 5.8,-0.5 6.2,0 8.5,2 8.5,12.8 v 48.5 c 0,1.6 1,2.6 2.6,2.6 h 13.8 c 1.6,0 2.6,-1 2.6,-2.6 v -50.9 c 0.1,-20.1 -7,-26.5 -23.4,-26.5 z"
   id="path6" />
		<path
   class="st1"
   d="m 464.8,179.9 c -5.2,0.6 -8.6,1 -12.5,1 -15.6,0 -20.3,-4.4 -20.3,-24 0,-19.5 4.9,-24 20.2,-24 4,0 7.6,0.3 12.9,0.9 1.7,0.2 2.9,-0.3 2.9,-2.4 v -10 c 0,-1.4 -0.8,-2.5 -2.2,-2.9 -4.9,-1.1 -10.6,-1.7 -16.7,-1.7 -25.6,0 -35.9,11.6 -35.9,40 0,28.4 10.3,40 35.9,40 6.2,0 11.7,-0.6 16.7,-1.7 1.4,-0.3 2.2,-1.4 2.2,-2.9 v -10 c -0.2,-2 -1.5,-2.5 -3.2,-2.3 z"
   id="path7" />
	</g>
</g>
</svg>
